# xmcd
# 
# Track frame offsets:
#     150
#     16659
#     35512
#     52054
#     71089
#     88268
#     99847
#     116597
#     136779
#     152354
#     170737
#     196654
#     210672
#     229971
#     245546
#     258539
#     274230
#     291791
#     301084
#     311170
# 
# Disc length: 4340
# 
# Revision: 15
# Processed by: cddbd v1.5.2PL0 Copyright (c) Steve Scherf et al.
# Submitted via: fre:ac v1.1beta1pre4
# 
DISCID=1910f214
DTITLE=Various Artist - Love Actually — The Original SoundTrack
DYEAR=2003
DGENRE=Rock
TTITLE0=Girls Aloud - Jump (For My Love)
TTITLE1=Sugababes - Too Lost In You -Soundtrack Ver.-
TTITLE2=Kelly Clarkson - The Trouble With Love Is
TTITLE3=Dido - Here With Me
TTITLE4=Billy Mack - Christmas Is All Around
TTITLE5=Norah Jones - Turn Me On
TTITLE6=Eva Cassidy - Songbird
TTITLE7=Maroon 5 - Sweetest Goodbye
TTITLE8=The Calling - Wherever You Will Go
TTITLE9=Texas - I'll See It Through
TTITLE10=Joni Mitchell - Both Sides Now
TTITLE11=Otis Redding - White Christmas
TTITLE12=Wyclef Jean Feat.Sharissa - Take Me As I Am
TTITLE13=Olivia Olson - All I Want For Christmas Is You
TTITLE14=The Beach Boys - God Only Knows
TTITLE15=Lynden David Hall - All You Need Is Love
TTITLE16=Gabrielle - Sometimes
TTITLE17=Craig Armstrong - Glasgow Love Theme
TTITLE18=Craig Armstrong - PM's Love Theme
TTITLE19=Craig Armstrong - Portugese Love Theme
EXTD=SoundTrack — Love Actually YEAR: 2003
EXTT0=
EXTT1=
EXTT2=
EXTT3=
EXTT4=
EXTT5=
EXTT6=
EXTT7=
EXTT8=
EXTT9=
EXTT10=
EXTT11=
EXTT12=
EXTT13=
EXTT14=
EXTT15=
EXTT16=
EXTT17=
EXTT18=
EXTT19=
PLAYORDER=
